<svg xmlns="http://www.w3.org/2000/svg" version="1.1" xmlns:xlink="http://www.w3.org/1999/xlink" xmlns:svgjs="http://svgjs.dev/svgjs" width="1000" height="1000" viewBox="0 0 1000 1000"><rect width="1000" height="1000" fill="#000000"></rect><g transform="matrix(0.7,0,0,0.7,149.62695944222156,38.37408918830903)"><svg viewBox="0 0 187 247" data-background-color="#0b022d" preserveAspectRatio="xMidYMid meet" height="1320" width="1000" xmlns="http://www.w3.org/2000/svg" xmlns:xlink="http://www.w3.org/1999/xlink"><defs></defs><g id="tight-bounds" transform="matrix(1,0,0,1,0.09965514040092671,-0.10000003193974294)"><svg viewBox="0 0 186.8006790255052 247.2" height="247.2" width="186.8006790255052"><g><svg viewBox="0 0 395.52 523.405720525515" height="247.2" width="186.8006790255052"><g transform="matrix(1,0,0,1,0,314.1906260911599)"><svg viewBox="0 0 395.52 209.2150944343551" height="209.2150944343551" width="395.52"><g><svg viewBox="0 0 395.52 209.2150944343551" height="209.2150944343551" width="395.52"><g><svg viewBox="0 0 395.52 134.01148235294116" height="134.01148235294116" width="395.52"><g transform="matrix(1,0,0,1,0,0)"><svg width="395.52" viewBox="2.75 -35.5 106.25 36" height="134.01148235294116" data-palette-color="#f7fff7"><g class="undefined-text-0" data-fill-palette-color="primary" id="text-0"><path d="M13.65 0L4.1 0Q3.55 0 3.15-0.4 2.75-0.8 2.75-1.35L2.75-1.35 2.75-33.65Q2.75-34.2 3.15-34.6 3.55-35 4.1-35L4.1-35 29.3-35Q29.85-35 30.25-34.6 30.65-34.2 30.65-33.65L30.65-33.65 30.65-26.05Q30.65-25.5 30.25-25.1 29.85-24.7 29.3-24.7L29.3-24.7 15-24.7 15-21 28.3-21Q28.85-21 29.25-20.6 29.65-20.2 29.65-19.65L29.65-19.65 29.65-12.1Q29.65-11.55 29.25-11.15 28.85-10.75 28.3-10.75L28.3-10.75 15-10.75 15-1.35Q15-0.8 14.6-0.4 14.2 0 13.65 0L13.65 0ZM50.9 0.5L50.9 0.5Q46.1 0.5 42.4-0.9 38.7-2.3 36.52-5.3 34.35-8.3 34.15-13.05L34.15-13.05Q34.1-15.1 34.1-17.45 34.1-19.8 34.15-21.95L34.15-21.95Q34.35-26.6 36.57-29.6 38.8-32.6 42.52-34.05 46.25-35.5 50.9-35.5L50.9-35.5Q54.1-35.5 57.07-34.77 60.05-34.05 62.45-32.5 64.85-30.95 66.27-28.53 67.7-26.1 67.75-22.7L67.75-22.7Q67.75-22.25 67.42-21.93 67.1-21.6 66.65-21.6L66.65-21.6 56.45-21.6Q55.65-21.6 55.27-21.93 54.9-22.25 54.6-23.05L54.6-23.05Q54.05-24.65 53.1-25.2 52.15-25.75 50.85-25.75L50.85-25.75Q49.2-25.75 48.22-24.88 47.25-24 47.15-21.7L47.15-21.7Q47-17.6 47.15-13.3L47.15-13.3Q47.25-11 48.22-10.13 49.2-9.25 50.85-9.25L50.85-9.25Q52.15-9.25 53.12-9.85 54.1-10.45 54.6-11.95L54.6-11.95Q54.85-12.8 55.25-13.1 55.65-13.4 56.45-13.4L56.45-13.4 66.65-13.4Q67.1-13.4 67.42-13.08 67.75-12.75 67.75-12.3L67.75-12.3Q67.7-8.9 66.27-6.48 64.85-4.05 62.45-2.5 60.05-0.95 57.07-0.23 54.1 0.5 50.9 0.5ZM82.1 0L73.05 0Q72.5 0 72.1-0.4 71.7-0.8 71.7-1.35L71.7-1.35 71.7-33.65Q71.7-34.2 72.1-34.6 72.5-35 73.05-35L73.05-35 80.95-35Q81.95-35 82.45-34.45 82.95-33.9 83.1-33.65L83.1-33.65 90.35-21.65 97.6-33.65Q97.75-33.9 98.25-34.45 98.75-35 99.75-35L99.75-35 107.65-35Q108.2-35 108.6-34.6 109-34.2 109-33.65L109-33.65 109-1.35Q109-0.8 108.6-0.4 108.2 0 107.65 0L107.65 0 98.6 0Q98.05 0 97.65-0.4 97.25-0.8 97.25-1.35L97.25-1.35 97.25-15.05 93.95-9.65Q93.7-9.25 93.27-8.83 92.85-8.4 92.1-8.4L92.1-8.4 88.6-8.4Q87.85-8.4 87.42-8.83 87-9.25 86.75-9.65L86.75-9.65 83.45-15.05 83.45-1.35Q83.45-0.8 83.05-0.4 82.65 0 82.1 0L82.1 0Z" fill="#ffffff" data-fill-palette-color="primary"></path></g></svg></g></svg></g><g transform="matrix(1,0,0,1,0,165.6483770608941)"><svg viewBox="0 0 395.52 43.56671737346101" height="43.56671737346101" width="395.52"><g transform="matrix(1,0,0,1,0,0)"><svg width="395.52" viewBox="1.9500000476837158 -37.9900016784668 446.1299743652344 49.150001525878906" height="43.56671737346101" data-palette-color="#f7fff7"><path d="M22.46-26.95Q22.46-29.1 21.68-30.18 20.9-31.25 19.96-31.82 19.02-32.4 17.9-32.7 16.77-33.01 15.65-33.01L15.65-33.01Q13.79-33.01 12.4-32.58 11.01-32.15 10.1-31.42 9.18-30.69 8.72-29.71 8.25-28.74 8.25-27.66L8.25-27.66Q8.25-26.05 8.83-25.06 9.4-24.07 10.28-23.47 11.16-22.88 12.22-22.53 13.28-22.19 14.26-21.85L14.26-21.85 19.19-20.24Q21.41-19.53 23.11-18.63 24.8-17.72 25.95-16.49 27.1-15.26 27.7-13.65 28.3-12.04 28.3-9.91L28.3-9.91Q28.3-7.62 27.36-5.66 26.42-3.71 24.73-2.27 23.05-0.83 20.72-0.01 18.38 0.81 15.6 0.81L15.6 0.81Q12.74 0.81 10.72 0.16 8.69-0.49 7.31-1.57 5.93-2.66 5.1-4.05 4.27-5.44 3.81-6.91L3.81-6.91 1.95-6.91 1.95-11.11 8.11-11.11Q8.11-8.4 8.68-7.28 9.25-6.15 10.28-5.41 11.3-4.66 12.72-4.28 14.14-3.91 15.84-3.91L15.84-3.91Q17.5-3.91 18.84-4.3 20.17-4.69 21.11-5.43 22.05-6.18 22.55-7.24 23.05-8.3 23.05-9.64L23.05-9.64Q23.05-11.13 22.42-12.17 21.8-13.21 20.83-13.94 19.85-14.67 18.69-15.14 17.53-15.6 16.46-15.94L16.46-15.94 11.11-17.46Q9.35-17.99 7.9-18.82 6.45-19.65 5.41-20.85 4.37-22.05 3.81-23.65 3.25-25.24 3.25-27.34L3.25-27.34Q3.25-29.47 4.08-31.32 4.91-33.18 6.52-34.57 8.13-35.96 10.46-36.76 12.79-37.55 15.8-37.55L15.8-37.55Q17.77-37.55 19.45-37.08 21.12-36.62 22.47-35.78 23.83-34.94 24.87-33.75 25.9-32.57 26.61-31.15L26.61-31.15 28.44-31.15 28.44-26.95 22.46-26.95ZM31.64-12.65L31.64-12.65Q31.66-15.65 32.6-18.12 33.54-20.58 35.23-22.35 36.91-24.12 39.23-25.07 41.55-26.03 44.33-26.03L44.33-26.03Q47.14-26.03 49.47-25.07 51.8-24.12 53.46-22.38 55.12-20.63 56.05-18.16 56.98-15.7 56.98-12.7L56.98-12.7Q56.98-9.74 56.05-7.26 55.12-4.79 53.46-3 51.8-1.22 49.47-0.23 47.14 0.76 44.33 0.76L44.33 0.76Q41.48 0.76 39.16-0.22 36.84-1.2 35.18-2.97 33.52-4.74 32.59-7.2 31.66-9.67 31.64-12.65ZM36.45-12.65L36.45-12.65Q36.45-10.47 37.07-8.72 37.69-6.96 38.78-5.73 39.87-4.49 41.29-3.82 42.72-3.15 44.33-3.15L44.33-3.15Q46.02-3.15 47.47-3.81 48.92-4.47 50-5.7 51.07-6.93 51.68-8.69 52.29-10.45 52.29-12.65L52.29-12.65Q52.29-14.94 51.68-16.72 51.07-18.51 50.01-19.7 48.95-20.9 47.48-21.51 46.02-22.12 44.33-22.12L44.33-22.12Q42.72-22.12 41.29-21.51 39.87-20.9 38.78-19.7 37.69-18.51 37.07-16.72 36.45-14.94 36.45-12.65ZM70.23-29.39L70.23-25.29 76.09-25.29 76.09-21.61 70.23-21.61 70.23-4.2 74.19-4.2 74.19 0 61.88 0 61.88-4.2 65.69-4.2 65.69-21.61 61.52-21.61 61.52-25.29 65.69-25.29 65.69-29.25Q65.74-31.45 66.33-33.08 66.91-34.72 67.99-35.82 69.06-36.91 70.58-37.45 72.09-37.99 73.95-37.99L73.95-37.99Q75.24-37.99 76.26-37.87 77.29-37.74 78.1-37.54 78.9-37.33 79.52-37.08 80.15-36.84 80.63-36.6L80.63-36.6 79.24-33.35Q78.46-33.76 77.2-34.06 75.95-34.35 74.58-34.35L74.58-34.35Q72.55-34.35 71.39-33.09 70.23-31.84 70.23-29.39L70.23-29.39ZM87.39-33.45L87.39-25.29 93.33-25.29 93.33-21.61 87.35-21.61 87.27-7.01Q87.27-5.52 87.61-4.59 87.96-3.66 88.71-3.31 89.47-2.95 90.42-2.95L90.42-2.95Q91.45-2.95 92.23-3.14 93.01-3.32 93.94-3.76L93.94-3.76 94.99-0.71Q93.82-0.1 92.52 0.26 91.23 0.61 89.47 0.61L89.47 0.61Q87.81 0.61 86.58 0.21 85.34-0.2 84.5-1.15 83.66-2.1 83.24-3.7 82.83-5.3 82.83-7.69L82.83-7.69 82.9-21.61 78.87-21.61 78.87-25.29 82.95-25.29 82.95-31.35 87.39-33.45ZM96.72-21.09L96.72-25.29 104.73-25.29 104.73-21.09 103.55-21.09 107.97-4.96 114.03-25.29 117.84-25.29 123.62-5 128.24-21.09 126.77-21.09 126.77-25.29 134.78-25.29 134.78-21.09 132.61-21.09 125.67 0.39 121.47 0.39 115.74-19.8 110.02 0.39 105.78 0.39 98.89-21.09 96.72-21.09ZM153.58 0L153.58-2.34Q152.14-1 150.39-0.15 148.64 0.71 146.42 0.71L146.42 0.71Q144.57 0.71 143.02 0.12 141.47-0.46 140.34-1.48 139.22-2.49 138.6-3.83 137.98-5.18 137.98-6.69L137.98-6.69Q137.98-8.3 138.45-9.55 138.93-10.79 139.72-11.71 140.51-12.62 141.58-13.24 142.64-13.87 143.8-14.25 144.96-14.62 146.17-14.78 147.38-14.94 148.47-14.94L148.47-14.94Q150.23-14.94 151.43-14.83 152.62-14.72 153.6-14.53L153.6-14.53 153.63-16.6Q153.63-17.94 153.23-18.93 152.84-19.92 152.14-20.57 151.43-21.22 150.44-21.53 149.45-21.85 148.23-21.85L148.23-21.85Q147.08-21.85 146.03-21.69 144.98-21.53 144.07-21.28 143.15-21.02 142.38-20.69 141.61-20.36 141.08-20L141.08-20 139.59-23.14Q140.49-23.73 141.56-24.23 142.64-24.73 143.82-25.09 145.01-25.44 146.24-25.65 147.47-25.85 148.67-25.85L148.67-25.85Q150.87-25.85 152.62-25.33 154.38-24.8 155.6-23.71 156.82-22.61 157.48-20.91 158.14-19.21 158.14-16.85L158.14-16.85 158.12-4.2 160.93-4.2 160.93 0 153.58 0ZM147.42-3.1L147.42-3.1Q148.33-3.1 149.23-3.32 150.13-3.54 150.94-3.92 151.75-4.3 152.43-4.8 153.11-5.3 153.58-5.83L153.58-5.83 153.6-11.55 148.33-11.55Q147.01-11.55 145.92-11.25 144.84-10.96 144.04-10.4 143.25-9.84 142.81-9.01 142.37-8.18 142.37-7.1L142.37-7.1Q142.37-6.1 142.74-5.36 143.1-4.61 143.77-4.11 144.45-3.61 145.37-3.36 146.3-3.1 147.42-3.1ZM184.24-25.44L184.24-19.95 179.6-19.95 179.6-21.51Q178.79-21.51 177.95-21.2 177.11-20.9 176.38-20.28 175.64-19.65 175.09-18.69 174.55-17.72 174.3-16.41L174.3-16.41 174.3-4.2 178.6-4.2 178.6 0 166.05 0 166.05-4.2 169.54-4.2 169.57-21.09 166.05-21.09 166.05-25.29 174.13-25.29 174.13-21.8Q174.57-22.58 175.12-23.25 175.67-23.93 176.34-24.43 177.01-24.93 177.83-25.21 178.65-25.49 179.6-25.49L179.6-25.49Q180.87-25.49 181.99-25.49 183.11-25.49 184.24-25.44L184.24-25.44ZM211.99-12.06L193.78-12.06Q193.78-10.99 193.94-10.1 194.1-9.2 194.39-8.4L194.39-8.4Q195.3-5.96 197.28-4.72 199.27-3.49 201.79-3.49L201.79-3.49Q203.77-3.49 205.63-4.04 207.5-4.59 209.55-5.76L209.55-5.76 211.38-2.66Q208.89-0.95 206.38-0.12 203.86 0.71 201.15 0.71L201.15 0.71Q198.59 0.71 196.41-0.15 194.22-1 192.65-2.69 191.07-4.37 190.18-6.88 189.29-9.4 189.29-12.74L189.29-12.74Q189.29-15.45 190.05-17.86 190.8-20.26 192.3-22.06 193.81-23.85 196.03-24.9 198.25-25.95 201.2-25.95L201.2-25.95Q204.06-25.95 205.98-25.09 207.89-24.22 209.1-22.79 210.31-21.36 210.93-19.53 211.55-17.7 211.8-15.8L211.8-15.8Q211.92-14.87 211.96-13.92 211.99-12.96 211.99-12.06L211.99-12.06ZM200.89-22.14L200.89-22.14Q199.3-22.14 198.11-21.69 196.93-21.24 196.1-20.4 195.27-19.56 194.77-18.33 194.27-17.11 194.03-15.6L194.03-15.6 207.14-15.6Q207.04-17.02 206.68-18.21 206.33-19.41 205.6-20.29 204.87-21.17 203.72-21.66 202.57-22.14 200.89-22.14ZM215.73 0Q215.73 0 215.73 0ZM230.15-32.79L230.15-37.01 256.67-37.01 256.67-26.54 251.66-26.54 251.66-32.79 238.45-32.79 238.45-20.95 249.56-20.95 249.56-16.75 238.45-16.75 238.45-4.2 251.66-4.2 251.66-10.45 256.67-10.45 256.67 0 230.15 0 230.15-4.2 233.67-4.2 233.67-32.79 230.15-32.79ZM277.15 0L277.15-4.2 280.71-4.2 280.71-15.75Q280.71-18.65 279.24-20.15 277.76-21.66 275-21.66L275-21.66Q273.41-21.66 271.8-20.9 270.19-20.14 268.75-19.02L268.75-19.02 268.75-4.2 272.31-4.2 272.31 0 260.5 0 260.5-4.2 264.01-4.2 264.01-21.09 260.5-21.09 260.5-25.29 268.55-25.29 268.55-22.31 268.6-22.31Q269.41-23.02 270.32-23.66 271.24-24.29 272.24-24.76 273.24-25.22 274.33-25.49 275.41-25.76 276.61-25.76L276.61-25.76Q278.64-25.76 280.27-25.2 281.91-24.63 283.06-23.49 284.2-22.34 284.83-20.54 285.45-18.75 285.45-16.31L285.45-16.31 285.45-4.2 288.96-4.2 288.96 0 277.15 0ZM312.35-1.86L312.35-2.22Q311.11-0.9 309.46-0.17 307.81 0.56 305.71 0.56L305.71 0.56Q303.15 0.56 300.94-0.33 298.73-1.22 297.1-2.94 295.48-4.66 294.56-7.17 293.65-9.67 293.65-12.89L293.65-12.89Q293.65-15.82 294.53-18.23 295.41-20.63 297.02-22.33 298.63-24.02 300.9-24.96 303.17-25.9 305.95-25.9L305.95-25.9Q307.86-25.9 309.38-25.48 310.91-25.05 312.35-24L312.35-24 312.35-25.29 316.89-25.29 316.89-1Q316.89 5 314.05 8.08 311.2 11.16 305.2 11.16L305.2 11.16Q303.88 11.16 302.44 10.96 301 10.77 299.59 10.34 298.19 9.91 296.86 9.25 295.53 8.59 294.41 7.64L294.41 7.64 296.85 3.96Q297.58 4.59 298.52 5.13 299.46 5.66 300.53 6.04 301.61 6.42 302.76 6.64 303.9 6.86 305.05 6.86L305.05 6.86Q306.93 6.86 308.31 6.47 309.69 6.08 310.58 5.09 311.47 4.1 311.91 2.42 312.35 0.73 312.35-1.86L312.35-1.86ZM306.3-3.39L306.3-3.39Q307.42-3.39 308.35-3.61 309.27-3.83 310.03-4.19 310.79-4.54 311.36-5 311.94-5.47 312.35-5.98L312.35-5.98 312.35-19.82Q311.11-20.92 309.48-21.41 307.86-21.9 306.15-21.9L306.15-21.9Q304.54-21.9 303.12-21.3 301.71-20.7 300.64-19.56 299.58-18.41 298.97-16.75 298.36-15.09 298.36-12.94L298.36-12.94Q298.36-10.6 298.95-8.81 299.53-7.03 300.58-5.82 301.63-4.61 303.1-4 304.56-3.39 306.3-3.39ZM322.94-21.09L322.94-25.29 331.2-25.29 331.2-4.2 335-4.2 335 0 322.99 0 322.99-4.2 326.61-4.2 326.61-21.09 322.94-21.09ZM325.75-34.25L325.75-34.25Q325.75-34.89 326.01-35.46 326.26-36.04 326.69-36.46 327.12-36.89 327.7-37.15 328.29-37.4 328.95-37.4L328.95-37.4Q329.58-37.4 330.16-37.15 330.73-36.89 331.16-36.46 331.59-36.04 331.84-35.46 332.1-34.89 332.1-34.25L332.1-34.25Q332.1-33.59 331.84-33.01 331.59-32.42 331.16-31.97 330.73-31.52 330.16-31.26 329.58-31.01 328.95-31.01L328.95-31.01Q328.29-31.01 327.7-31.26 327.12-31.52 326.69-31.97 326.26-32.42 326.01-33.01 325.75-33.59 325.75-34.25ZM355.83 0L355.83-4.2 359.39-4.2 359.39-15.75Q359.39-18.65 357.91-20.15 356.44-21.66 353.68-21.66L353.68-21.66Q352.09-21.66 350.48-20.9 348.87-20.14 347.43-19.02L347.43-19.02 347.43-4.2 350.99-4.2 350.99 0 339.18 0 339.18-4.2 342.69-4.2 342.69-21.09 339.18-21.09 339.18-25.29 347.23-25.29 347.23-22.31 347.28-22.31Q348.09-23.02 349-23.66 349.92-24.29 350.92-24.76 351.92-25.22 353.01-25.49 354.09-25.76 355.29-25.76L355.29-25.76Q357.32-25.76 358.95-25.2 360.59-24.63 361.74-23.49 362.88-22.34 363.51-20.54 364.13-18.75 364.13-16.31L364.13-16.31 364.13-4.2 367.64-4.2 367.64 0 355.83 0ZM395.03-12.06L376.82-12.06Q376.82-10.99 376.98-10.1 377.14-9.2 377.43-8.4L377.43-8.4Q378.33-5.96 380.32-4.72 382.31-3.49 384.83-3.49L384.83-3.49Q386.81-3.49 388.67-4.04 390.54-4.59 392.59-5.76L392.59-5.76 394.42-2.66Q391.93-0.95 389.42-0.12 386.9 0.71 384.19 0.71L384.19 0.71Q381.63 0.71 379.44-0.15 377.26-1 375.69-2.69 374.11-4.37 373.22-6.88 372.33-9.4 372.33-12.74L372.33-12.74Q372.33-15.45 373.09-17.86 373.84-20.26 375.34-22.06 376.84-23.85 379.07-24.9 381.29-25.95 384.24-25.95L384.24-25.95Q387.1-25.95 389.02-25.09 390.93-24.22 392.14-22.79 393.35-21.36 393.97-19.53 394.59-17.7 394.84-15.8L394.84-15.8Q394.96-14.87 395-13.92 395.03-12.96 395.03-12.06L395.03-12.06ZM383.92-22.14L383.92-22.14Q382.34-22.14 381.15-21.69 379.97-21.24 379.14-20.4 378.31-19.56 377.81-18.33 377.31-17.11 377.06-15.6L377.06-15.6 390.17-15.6Q390.08-17.02 389.72-18.21 389.37-19.41 388.64-20.29 387.9-21.17 386.76-21.66 385.61-22.14 383.92-22.14ZM423.72-12.06L405.5-12.06Q405.5-10.99 405.66-10.1 405.82-9.2 406.11-8.4L406.11-8.4Q407.02-5.96 409.01-4.72 411-3.49 413.51-3.49L413.51-3.49Q415.49-3.49 417.36-4.04 419.23-4.59 421.28-5.76L421.28-5.76 423.11-2.66Q420.62-0.95 418.1-0.12 415.59 0.71 412.88 0.71L412.88 0.71Q410.31 0.71 408.13-0.15 405.94-1 404.37-2.69 402.79-4.37 401.9-6.88 401.01-9.4 401.01-12.74L401.01-12.74Q401.01-15.45 401.77-17.86 402.53-20.26 404.03-22.06 405.53-23.85 407.75-24.9 409.97-25.95 412.93-25.95L412.93-25.95Q415.78-25.95 417.7-25.09 419.62-24.22 420.82-22.79 422.03-21.36 422.66-19.53 423.28-17.7 423.52-15.8L423.52-15.8Q423.64-14.87 423.68-13.92 423.72-12.96 423.72-12.06L423.72-12.06ZM412.61-22.14L412.61-22.14Q411.02-22.14 409.84-21.69 408.65-21.24 407.82-20.4 406.99-19.56 406.49-18.33 405.99-17.11 405.75-15.6L405.75-15.6 418.86-15.6Q418.76-17.02 418.41-18.21 418.05-19.41 417.32-20.29 416.59-21.17 415.44-21.66 414.29-22.14 412.61-22.14ZM448.08-25.44L448.08-19.95 443.44-19.95 443.44-21.51Q442.64-21.51 441.79-21.2 440.95-20.9 440.22-20.28 439.49-19.65 438.94-18.69 438.39-17.72 438.14-16.41L438.14-16.41 438.14-4.2 442.44-4.2 442.44 0 429.89 0 429.89-4.2 433.38-4.2 433.41-21.09 429.89-21.09 429.89-25.29 437.97-25.29 437.97-21.8Q438.41-22.58 438.96-23.25 439.51-23.93 440.18-24.43 440.85-24.93 441.67-25.21 442.49-25.49 443.44-25.49L443.44-25.49Q444.71-25.49 445.83-25.49 446.96-25.49 448.08-25.44L448.08-25.44Z" opacity="1" transform="matrix(1,0,0,1,0,0)" fill="#ffffff" class="undefined-text-1" data-fill-palette-color="secondary" id="text-1"></path></svg></g></svg></g></svg></g></svg></g><g transform="matrix(1,0,0,1,75.54432,0)"><svg viewBox="0 0 244.43135999999998 282.553731383207" height="282.553731383207" width="244.43135999999998"><g><svg xmlns="http://www.w3.org/2000/svg" xmlns:xlink="http://www.w3.org/1999/xlink" version="1.1" x="0" y="0" viewBox="17.299999237060547 12.199999809265137 65.39999389648438 75.60000610351562" style="enable-background:new 0 0 100 100;" xml:space="preserve" height="282.553731383207" width="244.43135999999998" class="icon-icon-0" data-fill-palette-color="accent" id="icon-0"><path d="M50 12.2L17.3 31.1v37.8L50 87.8l32.7-18.9V31.1L50 12.2zM32.1 37.4L50 16l17 21.4H32.1zM67.3 39.4L50 70.4l-18.2-31H67.3zM48.1 71l-27.7-4.5 9.8-25.9L48.1 71zM68.9 40.7l10.7 25.9-27.7 4.5L68.9 40.7zM69.2 37.1L52.6 16l27 15.6L69.2 37.1zM29.8 37.1l-9.4-5.5 26.8-15.5L29.8 37.1zM28.8 38.8l-9.5 25V33.3L28.8 38.8zM49 73.2v11.7L20.9 68.7 49 73.2zM51 73.2l28.1-4.5L51 84.9V73.2zM70.3 38.8l10.5-5.6v30.9L70.3 38.8z" fill="#ffffff" data-fill-palette-color="accent"></path></svg></g></svg></g><g></g></svg></g></svg><rect width="186.8006790255052" height="247.2" fill="none" stroke="none" visibility="hidden"></rect></g></svg></g></svg>